/* XPM */
static char *result[] = {
/* columns rows colors chars-per-pixel */
"32 32 7 1 ",
"  c #FFAA00",
". c #0000AA",
"X c #0055FF",
"o c #FF55FF",
"O c #00AAFF",
"+ c #FFFFAA",
"@ c white",
/* pixels */
"................................",
".@@@@@X@@X@@@@ ..@@@@@X@@X@@@@ .",
".@+XOX++++XOX+ ..@+XOX++++XOX+ .",
".@XOo+X++X+oOX ..@XOo+X++X+oOX .",
".@OoX++OX++XoO ..@OoX++OX++XoO .",
".@X+++XooO+++X ..@X+++XooO+++X .",
".X+X+O+XX+X+X+X..X+X+O+XX+X+X+X.",
".@++XoXooXoO++ ..@++XoXooXoO++ .",
".@++OoXooXoX++ ..@++OoXooXoX++ .",
".X+X+X+XX+O+X+X..X+X+X+XX+O+X+X.",
".@X+++OooX+++X ..@X+++OooX+++X .",
".@OoX++XO++XoO ..@OoX++XO++XoO .",
".@XOo+X++X+oOX ..@XOo+X++X+oOX .",
".@+XOX++++XOX+ ..@+XOX++++XOX+ .",
".     X  X     ..     X  X     .",
"................................",
"................................",
".@@@@@X@@X@@@@ ..@@@@@X@@X@@@@ .",
".@+XOX++++XOX+ ..@+XOX++++XOX+ .",
".@XOo+X++X+oOX ..@XOo+X++X+oOX .",
".@OoX++OX++XoO ..@OoX++OX++XoO .",
".@X+++XooO+++X ..@X+++XooO+++X .",
".X+X+O+XX+X+X+X..X+X+O+XX+X+X+X.",
".@++XoXooXoO++ ..@++XoXooXoO++ .",
".@++OoXooXoX++ ..@++OoXooXoX++ .",
".X+X+X+XX+O+X+X..X+X+X+XX+O+X+X.",
".@X+++OooX+++X ..@X+++OooX+++X .",
".@OoX++XO++XoO ..@OoX++XO++XoO .",
".@XOo+X++X+oOX ..@XOo+X++X+oOX .",
".@+XOX++++XOX+ ..@+XOX++++XOX+ .",
".     X  X     ..     X  X     .",
"................................"
};
