/* XPM */
static char *result[] = {
/* columns rows colors chars-per-pixel */
"32 32 4 1 ",
"  c black",
". c red",
"X c white",
"o c None",
/* pixels */
"oooooooooooooooooooooooooooooooo",
"oooooooooooooooooooooooooooooooo",
"oooooo    oooooooooooo    oooooo",
"oooo        oooooooo        oooo",
"ooo   ....   oooooo   ....   ooo",
"oo  .XXXX...  oooo  ........  oo",
"o  .XXXXX....  oo  ..........  o",
"  .XXXX.......    ............  ",
" ..XX..........  .............. ",
" .........   ...     .......... ",
" .XX..... XXX   XXXXX ......... ",
" .XX.... X  X        X ........ ",
" ...... X   X        X ........ ",
"  ..... X  XX    XXXX ........  ",
"o ..... X  XX   XX   ......... o",
"o  .... XXXXXX  XX    .......  o",
"oo  ....   XX   XXXXXX .....  oo",
"ooo  .....            .....  ooo",
"oooo  ....................  oooo",
"ooooo  ..................  ooooo",
"oooooo  ................  oooooo",
"ooooooo  ..............  ooooooo",
"oooooooo  ............  oooooooo",
"ooooooooo  ..........  ooooooooo",
"oooooooooo  ........  oooooooooo",
"ooooooooooo  ......  ooooooooooo",
"oooooooooooo  ....  oooooooooooo",
"ooooooooooooo  ..  ooooooooooooo",
"oooooooooooooo    oooooooooooooo",
"ooooooooooooooo  ooooooooooooooo",
"oooooooooooooooooooooooooooooooo",
"oooooooooooooooooooooooooooooooo"
};
