/* XPM */
static char *result[] = {
/* columns rows colors chars-per-pixel */
"32 32 7 1 ",
"  c black",
". c #AA0000",
"X c #EE6173",
"o c #FFAA00",
"O c #AAAAAA",
"+ c white",
"@ c None",
/* pixels */
"@@@@@@@@@@@@@@@@@@@@@@@@@@@@@@@@",
"@@@@@@@@@@@@@@@@@@@@@@@@@@@@@@@@",
"@@@@@@@@@@@         @@@@@@@@@@@@",
"@@@@@@@@@   +++++++   @@@@@@@@@@",
"@@@@@@@@  ++@@@@@@@++  @@@@@@@@@",
"@@@@@@@  +@@@@@@@@@@@+  @@@@@@@@",
"@@@@@@@ +@@@      @@@@+ @@@@@@@@",
"@@@@@@  +@  XXXXXX  @@+  @@@@@@@",
"@@@@@@ +@ XXXXXXXXXX @@+ @@@@@@@",
"@@@@@@ +@ XXXXXXXXXXX @+ @@@@@@@",
"@@@@@  +  ooXXXXXooXX @+  @@@@@@",
"@@@@@ +@ Xo.oXXoooooXX @+ @@@@@@",
"@@@@@ +@ Xo.XXo++oo+oX @+ @@@@@@",
"@@@@@ +@ Xo.Xo++ oo+  @@+ @@@@@@",
"@@@@@ +@ Xo.Xo++ oo+  @@+ @@@@@@",
"@@@@@ +@ XXoXo+++oo++o @+ @@@@@@",
"@@@@@ +@ XXXXooooo..oo @+ @@@@@@",
"@@@@@ +@@  XXXooooooo @@+ @@@@@@",
"@@@@@  ++@ ++O       +++  @@@@@@",
"@@@@@@    +OOOOO++OO     @@@@@@@",
"@@@@@@@@@ +OO OO++OO+ @@@@@@@@@@",
"@@@@@@@@ +OO OOOOOO O+ @@@@@@@@@",
"@@@@@@@@ +++ OOOOOO +++ @@@@@@@@",
"@@@@@@@@ ooo OOOOOO  oo @@@@@@@@",
"@@@@@@@@@   OOOO OO @  @@@@@@@@@",
"@@@@@@@@@@@ OOO  OO @@@@@@@@@@@@",
"@@@@@@@@@@@ OOO  OO @@@@@@@@@@@@",
"@@@@@@@@@@@ +++  +++ @@@@@@@@@@@",
"@@@@@@@@@@ ++++  ++++ @@@@@@@@@@",
"@@@@@@@@@@            @@@@@@@@@@",
"@@@@@@@@@@@@@@@@@@@@@@@@@@@@@@@@",
"@@@@@@@@@@@@@@@@@@@@@@@@@@@@@@@@"
};
