/* XPM */
static char *result[] = {
/* columns rows colors chars-per-pixel */
"32 32 6 1 ",
"  c black",
". c #550000",
"X c #AA5500",
"o c #5555AA",
"O c #00AAFF",
"+ c white",
/* pixels */
"XXXXXXXXXXXXXXXXXXXXXXXXXXXXXXXX",
"X++++++++++++++++++++++++++++++X",
"X++++++++++++++++++++++++++++++X",
"X++XXXXXXXXXXXXXXXXXXXXXXXXXX++X",
"X++X ...................... X++X",
"X++X OOOOOOOOOOOOOOOOOOOOOO X++X",
"X++X OOOOOOOOOOOOOOOOOOOOOO X++X",
"X++X OOOOOOOOOOOOOOOOOOOOOO X++X",
"X++X OOOOOOOOOOOOOOOOOOOOOO X++X",
"X++X OOOOOOOOOoOOOOOoOOOOO  X++X",
"X++X OOOOOOOOOoOOOOOoOOOO O X++X",
"X++X OOOOoOOOoOOOOOoOOOO OO X++X",
"X++X OOOOoOOOoOOOOOoOOO OOO X++X",
"X++X OOOoOOOoOOOOOoOO  OOoO X++X",
"X++X OOoOOooOOOOooO     OOo X++X",
"X++X OoOOo    oo         oO X++X",
"X++X                        X++X",
"X++X                        X++X",
"X++X                        X++X",
"X++X                        X++X",
"X++X       +++   +++++      X++X",
"X++X      +  +        +     X++X",
"X++X     +   +        +     X++X",
"X++X     +  ++    ++++      X++X",
"X++X     +  ++   ++         X++X",
"X++X     ++++++  ++         X++X",
"X++X        ++   ++++++     X++X",
"X++X                        X++X",
"X++X                        X++X",
"X++X                        X++X",
"X++X                        X++X",
"XXXX                        XXXX"
};
