/* XPM */
static char *result[] = {
/* columns rows colors chars-per-pixel */
"32 32 9 1 ",
"  c #550000",
". c #AA5500",
"X c #FEA900",
"o c #FEA901",
"O c #FFAA00",
"+ c #FEAA01",
"@ c #0000AA",
"# c #00AAFF",
"$ c #AAFFFF",
/* pixels */
"o++++++++++++++oo++++++++++++++o",
" ..............O ..............O",
" ..............O ..............O",
"               X               X",
"######@@@$$###########@@@$$#####",
"######@@@$$###########@@@$$#####",
"@@@@@@@@@$@@@@@@@@@@@@@@@$@@@@@@",
"@@@@@@@@@@@@@@@@@@@@@@@@@@@@@@@@",
"@@@@@@@@@@@@@@@@@@@@@@@@@@@@@@@@",
"@$$$$$$$$$$$$$$@@$$$$$$$$$$$$$$@",
"@$$$$$$$$$$$$$@@@$$$$$$$$$$$$$@@",
"@$$###########@@@$$###########@@",
"@$$###########@@@$$###########@@",
"@$$###########@@@$$###########@@",
"@$@@@@@@@@@@@@@@@$@@@@@@@@@@@@@@",
"@@@@@@@@@@@@@@@@@@@@@@@@@@@@@@@@",
"@@@@@@@@@@@@@@@@@@@@@@@@@@@@@@@@",
"$$$$$$$@@$$$$$$$$$$$$$$@@$$$$$$$",
"$$$$$$@@@$$$$$$$$$$$$$@@@$$$$$$$",
"######@@@$$###########@@@$$#####",
"######@@@$$###########@@@$$#####",
"######@@@$$###########@@@$$#####",
"@@@@@@@@@$@@@@@@@@@@@@@@@$@@@@@@",
"@@@@@@@@@@@@@@@@@@@@@@@@@@@@@@@@",
"@@@@@@@@@@@@@@@@@@@@@@@@@@@@@@@@",
"@$$$$$$$$$$$$$$@@$$$$$$$$$$$$$$@",
"@$$$$$$$$$$$$$@@@$$$$$$$$$$$$$@@",
"@$$###########@@@$$###########@@",
"@$$###########@@@$$###########@@",
"@$$###########@@@$$###########@@",
"@$@@@@@@@@@@@@@@@$@@@@@@@@@@@@@@",
"@@@@@@@@@@@@@@@@@@@@@@@@@@@@@@@@"
};
